# xmcd
#
# Track frame offsets:
#	150
#	33943
#	72141
#	97277
#	141987
#
# Disc length: 2738 seconds
#
# Revision: 0
# Processed by: cddbd v1.5.2PL0 Copyright (c) Steve Scherf et al.
# Submitted via: audiograbber 1.83.01
#
DISCID=450ab005
DTITLE=Grateful Dead - 93-03-29 Knickerbocker Arena, Albany NY
DYEAR=1900
DGENRE=
TTITLE0=Here Comes Sunshine
TTITLE1=Looks Like Rain
TTITLE2=Box Of Rain
TTITLE3=He's Gone
TTITLE4=Drums
EXTD=
EXTT0=
EXTT1=
EXTT2=
EXTT3=
EXTT4=
PLAYORDER=
